<svg width="71" height="82" viewBox="0 0 71 82" fill="none" xmlns="http://www.w3.org/2000/svg">
<path d="M34.0839 1.39496V4.18488C34.0839 4.95552 34.7082 5.57983 35.4788 5.57983C36.2489 5.57983 36.8738 4.95552 36.8738 4.18488V1.39496C36.8738 0.624847 36.2489 0 35.4788 0C34.7082 0 34.0839 0.624847 34.0839 1.39496Z" fill="#2196F3"/>
<path d="M34.0838 5.57983C33.3132 5.57983 32.6888 6.20468 32.6888 6.97479C32.6888 7.74544 33.3132 8.36975 34.0838 8.36975H36.8737C37.6444 8.36975 38.2687 7.74544 38.2687 6.97479C38.2687 6.20468 37.6444 5.57983 36.8737 5.57983H34.0838Z" fill="#2196F3"/>
<path d="M36.8737 11.1597C37.6444 11.1597 38.2687 10.5354 38.2687 9.76471C38.2687 8.9946 37.6444 8.36975 36.8737 8.36975H34.0838C33.3137 8.36975 32.6888 8.9946 32.6888 9.76471C32.6888 10.5354 33.3137 11.1597 34.0838 11.1597H36.8737Z" fill="#2196F3"/>
<path d="M68.9575 44.6312C68.9537 26.1416 53.9617 11.1559 35.4715 11.1597C16.9819 11.1634 1.99626 26.156 2 44.6456C2.00321 59.2099 11.4213 72.101 25.2956 76.531C25.428 76.5726 25.5658 76.594 25.7041 76.5935C25.968 76.5929 26.2265 76.5224 26.4534 76.3884C26.7488 76.2138 26.9693 75.9361 27.0729 75.6087L35.5276 48.8118C37.839 48.8 39.7029 46.9164 39.6906 44.6056C39.6788 42.2942 37.7957 40.4303 35.4843 40.442C34.8627 40.4447 34.2491 40.5878 33.6904 40.8607L22.5212 29.6899C21.9668 29.1547 21.084 29.1702 20.5489 29.724C20.0266 30.265 20.0266 31.1217 20.5489 31.6627L31.7123 42.8389C30.8557 44.5874 31.3454 46.698 32.8856 47.89L24.8299 73.4244C8.90964 67.5599 0.757782 49.9002 6.62227 33.9799C12.4868 18.0597 30.1464 9.90784 46.0667 15.7723C61.987 21.6368 70.1388 39.297 64.2743 55.2168C61.4091 62.9948 55.5222 69.2849 47.9509 72.6585L47.0803 68.5586C46.9212 67.805 46.1805 67.3233 45.4269 67.483C45.1892 67.5337 44.9687 67.6453 44.7871 67.8072L36.3938 75.3005C35.8181 75.8127 35.7669 76.6944 36.2796 77.2701C36.4462 77.457 36.6598 77.5959 36.8991 77.6723L47.6149 81.0924C48.3482 81.3279 49.1338 80.9247 49.3693 80.1909C49.4441 79.9591 49.4564 79.7124 49.4062 79.4742L48.5506 75.4511C60.9413 70.2275 68.9863 58.0777 68.9575 44.6312ZM35.479 43.2362C36.2491 43.2362 36.874 43.8611 36.874 44.6312C36.874 45.4018 36.2491 46.0262 35.479 46.0262C34.7084 46.0262 34.084 45.4018 34.084 44.6312C34.084 43.8611 34.7084 43.2362 35.479 43.2362ZM40.0735 75.7513L44.8512 71.4895L46.1698 77.7027L40.0735 75.7513Z" fill="#212121"/>
</svg>
